<svg id="svg" version="1.1" width="400" height="400" viewBox="0 0 400 400" xmlns="http://www.w3.org/2000/svg" xmlns:xlink="http://www.w3.org/1999/xlink" ><g id="svgg"><path id="path0" d="M59.200 82.320 C 59.200 83.912,59.449 85.311,59.875 86.120 C 60.421 87.156,60.604 89.119,60.833 96.400 C 61.048 103.261,61.267 105.751,61.753 106.875 C 62.231 107.982,62.454 110.380,62.648 116.475 C 62.829 122.179,63.079 125.017,63.489 126.000 C 63.902 126.991,64.162 130.028,64.382 136.400 C 64.615 143.167,64.843 145.698,65.300 146.600 C 65.759 147.506,65.967 149.865,66.150 156.242 C 66.339 162.830,66.539 165.026,67.060 166.242 C 67.585 167.465,67.784 169.706,67.987 176.666 C 68.186 183.483,68.379 185.692,68.820 186.224 C 69.261 186.755,69.453 188.962,69.653 195.758 C 69.855 202.665,70.056 204.934,70.573 206.129 C 71.080 207.301,71.307 209.680,71.547 216.329 C 71.767 222.449,72.021 225.294,72.411 226.000 C 72.808 226.719,73.041 229.543,73.241 236.040 C 73.458 243.153,73.655 245.345,74.160 246.323 C 74.663 247.296,74.858 249.419,75.057 256.083 C 75.252 262.602,75.457 264.882,75.931 265.800 C 76.407 266.722,76.616 269.087,76.833 276.000 C 77.048 282.861,77.267 285.351,77.753 286.475 C 78.231 287.582,78.454 289.980,78.648 296.075 C 78.829 301.779,79.079 304.617,79.489 305.600 C 79.906 306.602,80.153 309.579,80.356 316.062 C 80.566 322.784,80.780 325.294,81.185 325.782 C 81.583 326.262,81.823 328.827,82.074 335.319 C 82.333 342.022,82.579 344.592,83.075 345.800 C 83.578 347.022,83.803 349.478,84.029 356.200 C 84.400 367.252,84.487 367.581,87.046 367.594 C 87.731 367.597,88.721 367.933,89.246 368.339 C 89.825 368.788,91.222 369.182,92.800 369.341 C 94.493 369.511,95.568 369.829,95.880 370.251 C 96.192 370.671,97.275 370.994,98.959 371.168 C 100.411 371.318,101.875 371.717,102.278 372.072 C 102.689 372.432,104.164 372.826,105.698 372.985 C 107.413 373.162,108.515 373.476,108.723 373.848 C 108.934 374.225,110.084 374.543,111.956 374.743 C 113.697 374.929,114.999 375.274,115.202 375.603 C 115.402 375.927,116.648 376.267,118.244 376.432 C 120.033 376.617,121.108 376.933,121.425 377.366 C 121.746 377.805,122.787 378.104,124.584 378.271 C 126.200 378.422,127.515 378.772,127.894 379.151 C 128.280 379.537,129.602 379.879,131.316 380.036 C 133.223 380.211,134.218 380.489,134.456 380.915 C 134.686 381.325,135.695 381.632,137.422 381.817 C 138.872 381.972,140.308 382.365,140.640 382.697 C 140.979 383.036,142.459 383.431,144.044 383.605 C 145.741 383.791,147.036 384.149,147.324 384.512 C 147.607 384.868,148.853 385.222,150.400 385.386 C 151.899 385.544,153.306 385.937,153.723 386.313 C 154.179 386.725,155.398 387.026,157.034 387.130 C 158.970 387.253,159.716 387.470,159.995 387.991 C 160.271 388.506,161.056 388.743,163.003 388.899 C 164.702 389.036,165.911 389.358,166.406 389.806 C 166.874 390.229,168.181 390.605,169.745 390.767 C 171.160 390.913,172.624 391.288,173.000 391.600 C 173.376 391.912,174.843 392.287,176.261 392.434 C 177.973 392.611,179.004 392.926,179.329 393.370 C 179.649 393.808,180.642 394.119,182.209 394.270 C 183.524 394.397,185.161 394.838,185.847 395.251 C 186.623 395.717,187.850 396.000,189.093 396.000 C 190.493 396.000,191.400 396.242,192.119 396.808 C 192.819 397.358,194.081 397.709,196.073 397.908 C 198.577 398.158,199.057 398.330,199.395 399.100 C 199.890 400.230,200.110 400.230,200.605 399.100 C 200.936 398.345,201.451 398.146,203.800 397.866 C 205.340 397.682,206.909 397.255,207.287 396.916 C 207.665 396.577,209.125 396.180,210.531 396.035 C 212.000 395.883,213.352 395.505,213.711 395.146 C 214.088 394.770,215.420 394.421,217.068 394.267 C 218.959 394.091,219.954 393.803,220.298 393.332 C 220.646 392.857,221.552 392.600,223.298 392.480 C 224.784 392.378,226.089 392.054,226.512 391.681 C 226.904 391.336,228.411 390.911,229.861 390.737 C 231.521 390.537,232.671 390.182,232.966 389.779 C 233.275 389.357,234.312 389.064,236.017 388.918 C 237.440 388.796,238.909 388.428,239.287 388.098 C 239.665 387.769,241.140 387.379,242.566 387.231 C 244.063 387.076,245.461 386.688,245.878 386.312 C 246.284 385.946,247.722 385.534,249.158 385.372 C 250.815 385.185,251.978 384.822,252.458 384.342 C 252.996 383.804,253.790 383.600,255.346 383.600 C 256.827 383.600,257.788 383.370,258.446 382.858 C 259.010 382.419,260.452 381.999,261.973 381.830 C 263.547 381.655,264.926 381.244,265.527 380.772 C 266.176 380.261,267.136 380.000,268.365 380.000 C 269.475 380.000,270.618 379.723,271.206 379.311 C 271.747 378.932,273.323 378.505,274.708 378.361 C 276.237 378.203,277.530 377.826,278.000 377.400 C 278.479 376.966,279.780 376.595,281.416 376.426 C 282.975 376.265,284.199 375.926,284.400 375.600 C 284.601 375.274,285.825 374.935,287.384 374.774 C 288.992 374.608,290.322 374.232,290.783 373.815 C 291.255 373.388,292.496 373.048,294.070 372.914 C 295.649 372.780,296.901 372.436,297.400 372.000 C 297.901 371.562,299.154 371.220,300.756 371.083 C 302.162 370.964,303.441 370.658,303.598 370.404 C 303.920 369.883,306.423 369.224,308.137 369.210 C 308.762 369.204,309.731 368.840,310.291 368.400 C 310.876 367.939,311.922 367.597,312.754 367.594 C 315.528 367.582,315.566 367.449,315.989 356.183 C 316.236 349.584,316.482 346.979,316.964 345.825 C 317.454 344.653,317.666 342.265,317.850 335.842 C 318.033 329.465,318.241 327.106,318.700 326.200 C 319.157 325.298,319.385 322.767,319.618 316.000 C 319.838 309.621,320.098 306.592,320.512 305.600 C 320.927 304.606,321.174 301.707,321.366 295.602 C 321.583 288.717,321.764 286.809,322.278 286.025 C 322.794 285.237,322.975 283.282,323.204 276.023 C 323.413 269.382,323.647 266.630,324.092 265.600 C 324.534 264.574,324.758 261.990,324.929 255.917 C 325.112 249.405,325.301 247.366,325.810 246.380 C 326.322 245.391,326.520 243.212,326.749 236.063 C 326.958 229.552,327.195 226.718,327.593 226.000 C 327.988 225.288,328.229 222.523,328.431 216.390 C 328.654 209.602,328.860 207.443,329.401 206.190 C 329.949 204.922,330.141 202.810,330.347 195.758 C 330.547 188.962,330.739 186.755,331.180 186.224 C 331.621 185.692,331.814 183.483,332.013 176.666 C 332.216 169.706,332.415 167.465,332.940 166.242 C 333.461 165.026,333.661 162.830,333.850 156.242 C 334.033 149.865,334.241 147.506,334.700 146.600 C 335.157 145.698,335.385 143.167,335.618 136.400 C 335.838 130.028,336.098 126.991,336.511 126.000 C 336.921 125.017,337.171 122.179,337.352 116.475 C 337.546 110.380,337.769 107.982,338.247 106.875 C 338.733 105.751,338.952 103.261,339.167 96.400 C 339.396 89.119,339.579 87.156,340.125 86.120 C 340.551 85.311,340.800 83.912,340.800 82.320 L 340.800 79.800 200.000 79.800 L 59.200 79.800 59.200 82.320 M289.520 136.880 C 290.295 137.655,290.135 142.207,289.304 143.039 C 288.697 143.645,288.578 144.906,288.384 152.768 C 288.200 160.233,288.044 162.008,287.483 163.000 C 286.953 163.938,286.804 165.222,286.802 168.871 C 286.800 172.770,286.685 173.658,286.106 174.237 C 285.451 174.892,281.688 174.916,218.535 174.656 C 181.753 174.505,151.574 174.521,151.470 174.691 C 151.024 175.422,151.957 189.852,152.551 191.400 C 153.006 192.587,153.171 194.652,153.187 199.400 C 153.199 202.920,153.321 206.480,153.459 207.311 L 153.708 208.823 217.760 208.546 C 279.191 208.281,281.842 208.299,282.535 208.992 C 283.570 210.027,283.386 220.693,282.312 221.878 C 281.720 222.531,281.590 223.913,281.384 231.818 C 281.193 239.104,281.012 241.248,280.507 242.200 C 280.010 243.137,279.808 245.331,279.588 252.200 C 279.321 260.524,279.106 262.400,278.421 262.400 C 278.259 262.400,278.013 266.475,277.873 271.456 C 277.661 278.996,277.505 280.686,276.941 281.546 C 276.374 282.412,276.226 284.080,276.032 291.828 C 275.847 299.210,275.679 301.223,275.200 301.798 C 274.730 302.363,274.557 304.180,274.400 310.191 L 274.200 317.863 272.931 319.131 C 271.809 320.253,271.403 320.400,269.431 320.400 C 267.661 320.400,267.017 320.583,266.313 321.287 C 265.625 321.975,264.842 322.209,262.813 322.333 C 260.922 322.448,260.002 322.701,259.484 323.246 C 258.958 323.801,258.205 324.000,256.638 324.000 C 255.080 324.000,254.221 324.226,253.441 324.839 C 252.720 325.406,251.569 325.745,249.887 325.885 C 248.286 326.018,247.220 326.319,246.894 326.731 C 246.559 327.154,245.423 327.459,243.540 327.631 C 241.585 327.810,240.583 328.087,240.344 328.515 C 240.112 328.930,239.098 329.230,237.298 329.418 C 235.453 329.610,234.374 329.936,233.884 330.449 C 233.330 331.031,232.592 331.200,230.607 331.200 C 228.562 331.200,227.940 331.350,227.523 331.945 C 227.135 332.498,226.341 332.738,224.446 332.874 C 222.546 333.012,221.751 333.253,221.338 333.817 C 220.909 334.403,220.150 334.611,217.982 334.733 C 215.816 334.855,215.093 335.053,214.800 335.600 C 214.507 336.147,213.784 336.345,211.618 336.467 C 209.450 336.589,208.691 336.797,208.262 337.383 C 207.851 337.944,207.057 338.188,205.202 338.322 C 203.410 338.452,202.470 338.730,201.903 339.297 C 200.984 340.216,198.778 340.066,197.605 339.005 C 197.223 338.659,195.940 338.268,194.755 338.136 C 193.570 338.005,192.039 337.560,191.353 337.149 C 190.578 336.683,189.349 336.400,188.107 336.400 C 186.748 336.400,185.798 336.156,185.141 335.640 C 184.591 335.207,183.148 334.756,181.787 334.592 C 180.474 334.434,179.091 334.033,178.713 333.702 C 178.335 333.370,176.875 332.980,175.469 332.835 C 173.999 332.683,172.648 332.305,172.288 331.945 C 171.933 331.590,170.585 331.208,169.162 331.059 C 167.744 330.911,166.350 330.516,165.943 330.149 C 165.529 329.774,164.129 329.386,162.634 329.231 C 161.206 329.083,159.719 328.681,159.322 328.334 C 158.925 327.988,157.524 327.601,156.209 327.472 C 154.631 327.318,153.649 327.009,153.323 326.562 C 152.979 326.092,151.980 325.807,150.062 325.631 C 148.541 325.492,146.989 325.123,146.614 324.811 C 146.238 324.500,144.856 324.118,143.542 323.963 C 142.228 323.808,140.835 323.394,140.446 323.042 C 140.053 322.686,138.642 322.288,137.265 322.144 C 135.734 321.984,134.463 321.602,133.934 321.142 C 133.343 320.630,132.451 320.400,131.060 320.400 C 129.554 320.400,128.673 320.144,127.583 319.388 L 126.123 318.376 125.886 312.088 C 125.720 307.671,125.458 305.345,125.007 304.271 C 124.529 303.133,124.281 300.529,124.035 294.071 C 123.820 288.434,123.519 284.980,123.175 284.200 C 122.818 283.390,122.571 280.179,122.415 274.311 C 122.253 268.248,122.034 265.474,121.691 265.131 C 120.968 264.408,121.090 263.569,122.070 262.526 L 122.939 261.600 139.970 261.613 C 160.135 261.628,158.433 261.187,158.818 266.499 C 158.966 268.534,159.320 270.740,159.605 271.400 C 159.951 272.200,160.177 275.264,160.285 280.600 C 160.493 290.934,160.595 291.181,164.646 291.195 C 165.631 291.198,166.675 291.498,167.246 291.941 C 167.843 292.404,169.237 292.785,170.969 292.959 C 172.654 293.128,173.907 293.465,174.169 293.819 C 174.423 294.162,175.787 294.550,177.490 294.762 C 179.079 294.960,180.640 295.383,180.958 295.701 C 181.276 296.019,182.662 296.397,184.038 296.541 C 185.414 296.685,186.847 297.080,187.223 297.420 C 187.613 297.773,189.141 298.171,190.784 298.346 C 192.573 298.537,193.797 298.871,194.017 299.227 C 194.618 300.200,204.586 300.045,205.313 299.052 C 205.732 298.478,206.552 298.254,208.830 298.092 C 211.106 297.931,211.922 297.709,212.323 297.141 C 212.737 296.554,213.367 296.400,215.361 296.400 C 217.304 296.400,218.029 296.231,218.548 295.657 C 219.031 295.124,220.018 294.847,222.052 294.677 C 224.039 294.510,225.029 294.239,225.375 293.767 C 225.718 293.297,226.741 293.014,228.772 292.828 C 230.898 292.633,231.780 292.379,232.059 291.881 C 232.344 291.372,232.981 291.200,234.587 291.200 C 237.456 291.200,238.000 290.941,238.000 289.577 C 238.000 288.910,238.289 288.278,238.700 288.048 C 239.329 287.697,239.414 286.710,239.539 278.333 C 239.654 270.675,239.795 268.793,240.329 267.804 C 240.846 266.846,241.029 264.829,241.224 257.930 C 241.425 250.807,241.588 249.078,242.134 248.244 C 243.594 246.016,245.376 246.153,211.300 245.866 C 193.975 245.720,166.537 245.600,150.327 245.600 L 120.854 245.600 119.936 244.310 C 119.068 243.092,119.003 242.534,118.747 234.155 C 118.531 227.088,118.348 225.092,117.845 224.325 C 117.345 223.562,117.163 221.658,116.973 215.181 C 116.797 209.204,116.564 206.569,116.109 205.400 C 115.654 204.232,115.406 201.424,115.188 195.000 C 114.974 188.666,114.724 185.808,114.295 184.800 C 113.872 183.805,113.618 181.029,113.418 175.212 C 113.214 169.262,112.970 166.637,112.525 165.612 C 112.071 164.565,111.865 162.183,111.727 156.400 C 111.580 150.199,111.380 148.057,110.753 145.950 C 109.474 141.652,109.794 137.092,111.400 136.750 C 113.820 136.235,289.003 136.363,289.520 136.880 " stroke="none" fill="#e85225" fill-rule="evenodd"></path><path id="path1" d="M85.697 26.500 L 85.800 53.000 93.200 53.114 C 103.562 53.273,102.400 54.372,102.400 44.406 C 102.400 36.532,102.447 36.003,103.174 35.614 C 104.348 34.986,118.664 35.063,119.076 35.700 C 119.254 35.975,119.490 39.980,119.600 44.600 L 119.800 53.000 128.000 53.000 L 136.200 53.000 136.303 26.500 L 136.406 0.000 128.003 0.000 L 119.600 0.000 119.600 8.520 C 119.600 14.613,119.463 17.177,119.120 17.520 C 118.238 18.402,103.084 18.176,102.262 17.269 C 101.691 16.637,101.600 15.401,101.600 8.269 L 101.600 0.000 93.597 0.000 L 85.594 0.000 85.697 26.500 M146.000 8.557 C 146.000 18.687,145.045 17.598,153.933 17.606 C 157.600 17.609,160.870 17.783,161.200 17.991 C 161.713 18.315,161.829 20.879,162.000 35.685 L 162.200 53.000 169.200 53.114 C 173.050 53.177,176.605 53.128,177.100 53.006 L 178.000 52.785 178.000 35.672 C 178.000 22.896,178.122 18.438,178.480 18.080 C 178.814 17.746,180.971 17.598,185.580 17.595 C 195.037 17.587,194.000 18.700,194.000 8.553 L 194.000 0.000 170.000 0.000 L 146.000 0.000 146.000 8.557 M203.297 26.500 L 203.400 53.000 211.600 53.000 L 219.800 53.000 220.000 41.000 C 220.110 34.400,220.346 28.775,220.524 28.500 C 221.086 27.631,222.027 27.957,222.449 29.168 C 222.673 29.810,223.090 30.426,223.376 30.536 C 223.663 30.645,224.017 31.214,224.164 31.799 C 224.311 32.384,225.145 33.766,226.018 34.870 C 226.890 35.974,227.713 37.310,227.845 37.839 C 227.978 38.367,228.245 38.800,228.438 38.800 C 228.833 38.800,230.732 41.614,231.476 43.300 C 232.047 44.595,233.857 44.852,234.286 43.700 C 234.429 43.315,234.847 42.550,235.216 42.000 C 235.584 41.450,236.226 40.478,236.643 39.840 C 237.059 39.203,237.710 38.213,238.089 37.640 C 238.468 37.068,239.138 35.942,239.578 35.137 C 240.018 34.332,240.535 33.612,240.727 33.537 C 241.080 33.398,241.858 32.079,242.998 29.683 C 243.734 28.138,244.565 27.707,245.430 28.425 C 245.967 28.871,246.039 30.530,245.969 40.969 L 245.890 53.000 254.245 53.000 L 262.600 53.000 262.703 26.500 L 262.806 -0.000 254.003 -0.000 C 248.980 -0.000,245.200 0.156,245.200 0.364 C 245.200 0.890,243.113 4.000,242.761 4.000 C 242.597 4.000,242.349 4.521,242.209 5.159 C 242.069 5.796,241.605 6.634,241.177 7.021 C 240.750 7.407,240.400 7.902,240.400 8.121 C 240.400 8.608,237.730 12.673,237.190 13.006 C 236.976 13.139,236.800 13.583,236.800 13.993 C 236.800 14.403,236.395 15.249,235.900 15.872 C 235.405 16.496,234.795 17.365,234.543 17.803 C 233.690 19.293,231.631 18.478,230.574 16.232 C 230.255 15.554,229.552 14.280,229.011 13.400 C 228.471 12.520,227.755 11.227,227.420 10.527 C 227.086 9.827,226.644 9.151,226.438 9.024 C 226.233 8.897,225.427 7.652,224.647 6.258 C 223.867 4.863,222.957 3.497,222.625 3.221 C 222.293 2.945,221.906 2.108,221.766 1.360 L 221.511 0.000 212.353 0.000 L 203.194 0.000 203.297 26.500 M273.111 26.100 C 273.050 40.455,273.144 52.380,273.320 52.600 C 273.734 53.118,313.372 53.368,314.283 52.858 C 315.056 52.425,315.091 38.232,314.320 37.304 C 314.002 36.920,311.166 36.800,302.413 36.800 C 291.791 36.800,290.874 36.745,290.262 36.069 C 289.667 35.411,289.600 33.548,289.600 17.669 L 289.600 0.000 281.411 0.000 L 273.222 0.000 273.111 26.100 " stroke="none" fill="#040404" fill-rule="evenodd"></path><path id="path2" d="M0.000 200.000 L 0.000 400.000 98.433 400.000 C 200.009 400.000,201.881 399.971,193.872 398.517 C 192.407 398.251,190.848 397.840,190.406 397.603 C 189.964 397.367,188.571 396.983,187.309 396.749 C 186.048 396.516,184.560 396.090,184.003 395.801 C 183.445 395.513,182.092 395.147,180.995 394.987 C 179.898 394.827,178.490 394.437,177.866 394.120 C 177.243 393.804,175.644 393.369,174.313 393.155 C 172.982 392.941,171.419 392.520,170.839 392.220 C 170.258 391.920,168.797 391.491,167.592 391.268 C 166.386 391.044,164.860 390.578,164.200 390.233 C 163.540 389.887,162.528 389.604,161.950 389.602 C 161.373 389.601,160.113 389.310,159.150 388.956 C 158.188 388.602,156.320 388.079,155.000 387.793 C 153.680 387.506,151.880 386.994,151.000 386.654 C 150.120 386.313,148.983 386.027,148.474 386.018 C 147.965 386.008,146.705 385.663,145.674 385.250 C 144.643 384.838,142.900 384.314,141.800 384.086 C 140.700 383.858,138.990 383.407,138.000 383.084 C 136.257 382.516,134.656 382.071,131.100 381.169 C 130.165 380.931,127.960 380.298,126.200 379.762 C 124.440 379.225,122.640 378.788,122.200 378.791 C 121.760 378.793,120.897 378.533,120.282 378.212 C 119.667 377.891,118.052 377.427,116.692 377.180 C 115.333 376.934,113.856 376.534,113.410 376.291 C 112.965 376.048,111.520 375.624,110.200 375.349 C 108.880 375.074,106.990 374.590,106.000 374.273 C 104.058 373.651,101.976 373.080,98.200 372.132 C 96.880 371.801,95.170 371.270,94.400 370.953 C 93.630 370.636,92.100 370.217,91.000 370.021 C 89.900 369.826,87.830 369.222,86.400 368.679 L 83.800 367.693 83.540 365.546 C 83.396 364.366,83.261 362.033,83.240 360.362 C 83.218 358.691,82.854 354.641,82.431 351.362 C 82.008 348.083,81.549 342.970,81.412 340.000 C 81.275 337.030,80.906 333.070,80.592 331.200 C 80.279 329.330,79.841 324.380,79.620 320.200 C 79.398 316.020,79.044 312.008,78.832 311.284 C 78.620 310.560,78.244 306.330,77.997 301.884 C 77.750 297.438,77.373 293.127,77.160 292.305 C 76.946 291.483,76.514 286.893,76.199 282.105 C 75.883 277.317,75.441 272.320,75.215 271.000 C 74.989 269.680,74.622 265.421,74.399 261.537 C 74.176 257.652,73.811 253.514,73.589 252.342 C 73.367 251.170,72.918 246.249,72.591 241.406 C 72.265 236.563,71.832 231.790,71.630 230.800 C 71.428 229.810,71.057 225.449,70.806 221.109 C 70.555 216.769,70.181 212.630,69.975 211.912 C 69.769 211.193,69.414 207.184,69.188 203.003 C 68.961 198.821,68.511 193.780,68.188 191.800 C 67.866 189.820,67.416 184.761,67.190 180.558 C 66.963 176.355,66.603 172.308,66.390 171.566 C 66.177 170.823,65.820 166.882,65.597 162.808 C 65.374 158.733,65.023 154.320,64.816 153.000 C 64.095 148.384,63.965 147.003,63.593 140.027 C 63.388 136.162,63.046 132.411,62.835 131.691 C 62.624 130.971,62.251 126.831,62.007 122.491 C 61.763 118.151,61.311 113.070,61.003 111.200 C 60.695 109.330,60.327 105.280,60.184 102.200 C 60.042 99.120,59.672 94.890,59.361 92.800 C 58.565 87.445,58.173 78.988,58.705 78.659 C 59.257 78.317,340.743 78.317,341.295 78.659 C 341.827 78.988,341.435 87.445,340.639 92.800 C 340.328 94.890,339.958 99.120,339.816 102.200 C 339.673 105.280,339.305 109.330,338.997 111.200 C 338.689 113.070,338.237 118.151,337.993 122.491 C 337.749 126.831,337.376 130.971,337.165 131.691 C 336.954 132.411,336.612 136.162,336.407 140.027 C 336.035 147.003,335.905 148.384,335.184 153.000 C 334.977 154.320,334.626 158.733,334.403 162.808 C 334.180 166.882,333.822 170.825,333.608 171.571 C 333.395 172.316,333.025 176.453,332.788 180.763 C 332.550 185.073,332.111 190.040,331.812 191.800 C 331.514 193.560,331.150 197.610,331.003 200.800 C 330.857 203.990,330.487 208.232,330.180 210.226 C 329.873 212.220,329.425 217.260,329.184 221.426 C 328.943 225.592,328.578 229.720,328.374 230.600 C 328.170 231.480,327.731 236.326,327.398 241.370 C 327.066 246.413,326.624 251.183,326.418 251.970 C 326.211 252.756,325.858 256.741,325.633 260.825 C 325.407 264.909,324.965 270.039,324.649 272.225 C 324.333 274.411,323.958 278.540,323.815 281.400 C 323.673 284.260,323.301 288.400,322.989 290.600 C 322.678 292.800,322.230 298.020,321.995 302.200 C 321.759 306.380,321.392 310.430,321.178 311.200 C 320.964 311.970,320.612 315.750,320.395 319.600 C 320.178 323.450,319.823 327.860,319.607 329.400 C 319.390 330.940,319.026 334.810,318.798 338.000 C 318.569 341.190,318.203 345.420,317.984 347.400 C 317.588 350.973,317.016 357.341,316.480 364.144 L 316.200 367.688 312.800 368.835 C 310.930 369.467,308.983 369.987,308.474 369.991 C 307.965 369.996,306.705 370.353,305.674 370.784 C 304.643 371.214,302.900 371.740,301.800 371.952 C 300.700 372.164,298.990 372.609,298.000 372.942 C 296.245 373.532,295.140 373.832,290.200 375.063 C 288.880 375.392,287.232 375.906,286.538 376.206 C 285.843 376.506,284.133 376.958,282.738 377.211 C 281.342 377.463,280.000 377.836,279.755 378.039 C 279.510 378.241,278.250 378.595,276.955 378.825 C 275.660 379.055,274.060 379.489,273.400 379.788 C 272.740 380.087,271.140 380.526,269.845 380.762 C 268.550 380.999,267.264 381.381,266.987 381.611 C 266.710 381.840,265.430 382.198,264.142 382.404 C 262.854 382.611,261.170 383.039,260.400 383.355 C 259.630 383.671,257.920 384.201,256.600 384.532 C 251.462 385.822,250.540 386.073,248.800 386.655 C 247.810 386.986,245.920 387.481,244.600 387.753 C 243.280 388.026,241.835 388.448,241.390 388.691 C 240.944 388.934,239.477 389.332,238.131 389.576 C 236.784 389.821,235.169 390.269,234.541 390.572 C 233.914 390.876,232.590 391.253,231.600 391.409 C 230.610 391.566,229.342 391.929,228.783 392.215 C 228.224 392.501,226.611 392.944,225.200 393.200 C 223.789 393.456,222.176 393.897,221.617 394.181 C 221.058 394.464,219.702 394.827,218.605 394.987 C 217.508 395.147,216.155 395.513,215.597 395.801 C 215.040 396.090,213.552 396.516,212.291 396.749 C 211.029 396.983,209.636 397.367,209.194 397.603 C 208.752 397.840,207.193 398.251,205.728 398.517 C 197.719 399.971,199.584 400.000,301.367 400.000 L 400.000 400.000 400.000 200.000 L 400.000 0.000 345.400 0.000 L 290.800 0.000 290.800 17.400 C 290.800 26.970,290.845 34.836,290.900 34.880 C 290.955 34.924,296.439 35.059,303.086 35.180 C 318.101 35.453,316.557 34.426,316.732 44.257 C 316.894 53.312,316.868 53.443,314.789 54.003 C 311.553 54.874,272.843 54.348,272.167 53.424 C 271.691 52.772,271.600 48.421,271.600 26.324 L 271.600 0.000 267.800 0.000 L 264.000 0.000 264.000 26.400 C 264.000 52.267,263.984 52.816,263.200 53.600 C 262.022 54.778,246.520 54.837,245.462 53.669 C 244.877 53.022,244.800 51.549,244.800 41.045 C 244.800 33.219,244.663 29.237,244.400 29.400 C 244.180 29.536,244.000 29.969,244.000 30.362 C 244.000 30.755,243.656 31.387,243.236 31.767 C 242.816 32.148,242.362 32.896,242.228 33.429 C 242.094 33.963,241.799 34.400,241.572 34.400 C 241.345 34.400,240.893 34.985,240.568 35.700 C 240.242 36.415,239.262 37.990,238.389 39.200 C 237.516 40.410,236.801 41.623,236.801 41.897 C 236.800 42.170,236.440 42.618,236.000 42.893 C 235.560 43.168,235.194 43.664,235.187 43.996 C 235.136 46.413,230.800 46.542,230.800 44.127 C 230.800 43.901,230.350 43.231,229.800 42.638 C 229.250 42.044,228.800 41.320,228.800 41.028 C 228.800 40.737,228.511 40.258,228.158 39.965 C 227.805 39.673,227.351 39.065,227.148 38.616 C 226.769 37.777,225.197 35.447,224.318 34.421 C 223.784 33.799,222.788 32.098,221.880 30.258 L 221.317 29.116 221.058 30.408 C 220.916 31.119,220.800 36.621,220.800 42.636 C 220.800 55.792,221.909 54.400,211.426 54.400 C 200.684 54.400,202.000 58.310,202.000 26.400 L 202.000 0.000 198.800 0.000 L 195.600 0.000 195.600 8.551 C 195.600 19.155,196.480 18.163,186.940 18.325 L 179.600 18.449 179.600 35.776 C 179.600 51.393,179.535 53.156,178.940 53.651 C 178.245 54.228,164.513 54.716,162.584 54.232 C 160.348 53.671,160.400 54.084,160.400 36.821 C 160.400 28.065,160.288 20.338,160.150 19.650 L 159.900 18.400 152.950 18.400 C 143.663 18.400,144.400 19.262,144.400 8.400 L 144.400 0.000 141.000 0.000 L 137.600 0.000 137.600 26.400 C 137.600 58.310,138.916 54.400,128.174 54.400 C 117.884 54.400,118.801 55.193,118.796 46.286 C 118.793 42.279,118.687 38.370,118.560 37.600 L 118.328 36.200 111.064 36.288 L 103.800 36.376 103.692 44.666 C 103.600 51.673,103.482 53.067,102.930 53.678 C 101.952 54.758,86.553 54.776,85.222 53.698 L 84.356 52.997 84.389 26.498 L 84.421 0.000 42.211 0.000 L 0.000 0.000 0.000 200.000 M103.292 8.500 L 103.400 17.000 111.000 17.000 L 118.600 17.000 118.708 8.500 L 118.816 -0.000 111.000 -0.000 L 103.184 0.000 103.292 8.500 M222.800 0.751 C 222.800 1.164,223.063 1.720,223.385 1.987 C 223.706 2.254,224.091 2.861,224.239 3.336 C 224.388 3.811,224.935 4.709,225.455 5.331 C 225.975 5.953,226.400 6.690,226.400 6.969 C 226.400 7.248,226.760 7.802,227.200 8.200 C 227.640 8.598,228.000 9.153,228.000 9.433 C 228.000 9.714,228.277 10.219,228.615 10.557 C 228.953 10.895,229.495 11.808,229.820 12.586 C 230.145 13.364,230.574 14.000,230.774 14.000 C 230.974 14.000,231.343 14.621,231.594 15.381 C 232.272 17.435,234.366 17.720,234.394 15.762 C 234.397 15.521,234.760 14.998,235.200 14.600 C 235.640 14.202,236.000 13.566,236.000 13.187 C 236.000 12.808,236.298 12.251,236.662 11.949 C 237.026 11.647,237.568 10.815,237.867 10.100 C 238.166 9.385,238.576 8.800,238.778 8.800 C 238.981 8.800,239.267 8.395,239.415 7.900 C 239.563 7.405,240.456 5.830,241.400 4.400 C 242.344 2.970,243.237 1.395,243.385 0.900 L 243.654 0.000 233.227 0.000 C 223.293 0.000,222.800 0.036,222.800 0.751 M156.520 137.997 C 125.646 138.139,112.310 138.330,112.006 138.634 C 111.486 139.154,112.044 148.646,113.204 159.000 C 113.623 162.740,114.078 167.870,114.215 170.400 C 114.352 172.930,114.710 176.800,115.011 179.000 C 115.311 181.200,115.665 185.070,115.797 187.600 C 115.928 190.130,116.305 194.270,116.635 196.800 C 116.964 199.330,117.494 205.090,117.813 209.600 C 118.132 214.110,118.569 218.970,118.785 220.400 C 119.000 221.830,119.364 226.060,119.592 229.800 C 119.970 235.978,120.341 239.223,121.124 243.200 L 121.400 244.600 181.961 244.701 C 225.912 244.775,242.669 244.925,243.061 245.250 C 243.757 245.828,243.745 248.401,243.025 253.200 C 242.711 255.290,242.257 260.195,242.015 264.100 C 241.773 268.005,241.402 272.055,241.189 273.100 C 240.976 274.145,240.617 278.325,240.390 282.388 C 239.926 290.691,239.711 291.348,237.323 291.775 C 236.485 291.924,234.848 292.396,233.685 292.823 C 232.522 293.251,231.133 293.600,230.600 293.600 C 230.066 293.600,228.768 293.936,227.715 294.347 C 226.662 294.757,224.902 295.225,223.805 295.385 C 222.708 295.546,221.351 295.915,220.788 296.206 C 220.226 296.497,218.611 296.944,217.200 297.200 C 215.789 297.456,214.176 297.896,213.617 298.178 C 213.058 298.460,211.614 298.817,210.410 298.971 C 209.205 299.125,208.010 299.425,207.754 299.638 C 207.498 299.851,205.982 300.297,204.385 300.630 C 202.788 300.963,201.171 301.402,200.792 301.604 C 200.367 301.832,199.584 301.825,198.753 301.587 C 198.011 301.374,196.343 301.007,195.046 300.772 C 193.748 300.537,192.307 300.104,191.843 299.810 C 191.380 299.516,190.010 299.151,188.800 298.997 C 187.590 298.844,186.060 298.469,185.400 298.164 C 184.740 297.860,183.210 297.427,182.000 297.203 C 180.790 296.979,178.990 296.528,178.000 296.201 C 175.998 295.541,172.574 294.620,169.126 293.816 C 167.875 293.525,166.075 293.008,165.126 292.669 C 164.177 292.329,162.731 291.943,161.914 291.810 C 159.934 291.489,159.939 291.502,159.539 285.247 C 159.348 282.251,159.008 278.810,158.784 277.600 C 158.560 276.390,158.266 273.060,158.131 270.200 C 157.995 267.340,157.734 264.593,157.550 264.096 L 157.217 263.191 140.108 263.296 L 123.000 263.400 123.115 268.400 C 123.178 271.150,123.490 275.110,123.809 277.200 C 124.128 279.290,124.574 284.145,124.801 287.989 C 125.027 291.833,125.391 296.089,125.608 297.448 C 125.825 298.807,126.272 303.744,126.601 308.419 C 126.981 313.802,127.383 317.140,127.700 317.523 C 128.374 318.338,131.165 319.576,132.400 319.609 C 132.950 319.623,134.120 319.909,135.000 320.244 C 135.880 320.579,137.950 321.190,139.600 321.603 C 144.968 322.946,148.211 323.871,149.013 324.288 C 149.446 324.514,150.700 324.826,151.800 324.983 C 152.900 325.141,154.340 325.521,155.000 325.829 C 155.660 326.137,157.150 326.568,158.311 326.786 C 159.472 327.005,160.765 327.367,161.184 327.592 C 161.604 327.816,163.251 328.274,164.844 328.609 C 166.437 328.944,167.934 329.378,168.170 329.572 C 168.407 329.766,169.500 330.054,170.600 330.212 C 171.700 330.369,173.320 330.814,174.200 331.200 C 175.080 331.586,176.700 332.032,177.800 332.190 C 178.900 332.349,180.160 332.673,180.600 332.911 C 181.040 333.148,182.660 333.660,184.200 334.048 C 188.910 335.235,190.526 335.673,192.400 336.274 C 194.701 337.011,199.220 338.101,200.000 338.106 C 201.139 338.114,210.400 335.748,212.262 334.974 C 212.957 334.685,214.659 334.243,216.045 333.992 C 217.432 333.740,219.024 333.303,219.583 333.021 C 220.142 332.738,221.320 332.382,222.200 332.230 C 223.080 332.078,224.752 331.604,225.915 331.177 C 227.078 330.749,228.518 330.394,229.115 330.386 C 229.712 330.379,230.920 330.025,231.800 329.600 C 232.680 329.175,233.799 328.821,234.288 328.814 C 234.776 328.806,236.554 328.350,238.239 327.800 C 239.924 327.250,241.774 326.799,242.351 326.798 C 242.928 326.796,243.940 326.513,244.600 326.167 C 245.260 325.822,246.786 325.356,247.992 325.132 C 249.197 324.909,250.640 324.490,251.197 324.201 C 251.755 323.913,253.108 323.549,254.205 323.393 C 255.302 323.236,256.740 322.863,257.400 322.563 C 258.060 322.263,259.770 321.757,261.200 321.439 C 262.630 321.120,264.520 320.584,265.400 320.247 C 266.280 319.911,267.383 319.627,267.851 319.618 C 272.128 319.529,272.900 317.619,273.599 305.400 C 273.813 301.660,274.245 296.800,274.559 294.600 C 274.873 292.400,275.241 288.080,275.378 285.000 C 275.514 281.920,275.884 277.780,276.199 275.800 C 276.515 273.820,276.968 268.960,277.206 265.000 C 277.444 261.040,277.805 256.990,278.008 256.000 C 278.211 255.010,278.565 250.960,278.795 247.000 C 279.025 243.040,279.472 238.000,279.789 235.800 C 280.107 233.600,280.557 228.650,280.790 224.800 C 281.022 220.950,281.386 217.080,281.597 216.200 C 281.808 215.320,281.985 213.565,281.990 212.300 L 282.000 210.000 217.900 209.994 C 182.645 209.991,153.558 209.834,153.262 209.647 C 152.890 209.411,152.620 207.725,152.384 204.153 C 152.196 201.319,151.854 197.920,151.623 196.600 C 151.392 195.280,151.016 190.870,150.787 186.800 C 150.557 182.730,150.198 178.770,149.987 178.000 C 149.419 175.920,149.518 174.139,150.244 173.413 C 150.833 172.824,156.509 172.793,216.744 173.049 C 282.563 173.329,285.571 173.286,285.608 172.069 C 285.711 168.724,286.533 158.715,286.978 155.400 C 288.039 147.486,288.403 139.533,287.750 138.500 L 287.182 137.600 243.891 137.697 C 220.081 137.750,180.764 137.885,156.520 137.997 " stroke="none" fill="#faf9f9" fill-rule="evenodd"></path><path id="path3" d="M58.876 78.641 C 58.151 79.171,58.380 85.992,59.343 92.600 C 59.663 94.800,60.042 99.120,60.184 102.200 C 60.327 105.280,60.695 109.330,61.003 111.200 C 61.311 113.070,61.763 118.151,62.007 122.491 C 62.251 126.831,62.624 130.971,62.835 131.691 C 63.046 132.411,63.388 136.162,63.593 140.027 C 63.965 147.003,64.095 148.384,64.816 153.000 C 65.023 154.320,65.374 158.733,65.597 162.808 C 65.820 166.882,66.177 170.823,66.390 171.566 C 66.603 172.308,66.963 176.355,67.190 180.558 C 67.416 184.761,67.866 189.820,68.188 191.800 C 68.511 193.780,68.961 198.821,69.188 203.003 C 69.414 207.184,69.769 211.193,69.975 211.912 C 70.181 212.630,70.555 216.769,70.806 221.109 C 71.057 225.449,71.428 229.810,71.630 230.800 C 71.832 231.790,72.265 236.563,72.591 241.406 C 72.918 246.249,73.367 251.170,73.589 252.342 C 73.811 253.514,74.176 257.652,74.399 261.537 C 74.622 265.421,74.989 269.680,75.215 271.000 C 75.441 272.320,75.883 277.317,76.199 282.105 C 76.514 286.893,76.946 291.483,77.160 292.305 C 77.373 293.127,77.750 297.438,77.997 301.884 C 78.244 306.330,78.620 310.560,78.832 311.284 C 79.044 312.008,79.398 316.020,79.620 320.200 C 79.841 324.380,80.279 329.330,80.592 331.200 C 80.906 333.070,81.275 337.030,81.412 340.000 C 81.549 342.970,82.008 348.083,82.431 351.362 C 82.854 354.641,83.218 358.691,83.240 360.362 C 83.261 362.033,83.396 364.366,83.540 365.546 L 83.800 367.693 86.400 368.679 C 87.830 369.222,89.900 369.826,91.000 370.021 C 92.100 370.217,93.630 370.636,94.400 370.953 C 95.170 371.270,96.880 371.801,98.200 372.132 C 101.976 373.080,104.058 373.651,106.000 374.273 C 106.990 374.590,108.880 375.074,110.200 375.349 C 111.520 375.624,112.965 376.048,113.410 376.291 C 113.856 376.534,115.333 376.934,116.692 377.180 C 118.052 377.427,119.667 377.891,120.282 378.212 C 120.897 378.533,121.760 378.793,122.200 378.791 C 122.640 378.788,124.440 379.225,126.200 379.762 C 127.960 380.298,130.165 380.931,131.100 381.169 C 134.656 382.071,136.257 382.516,138.000 383.084 C 138.990 383.407,140.700 383.858,141.800 384.086 C 142.900 384.314,144.643 384.838,145.674 385.250 C 146.705 385.663,147.965 386.008,148.474 386.018 C 148.983 386.027,150.120 386.313,151.000 386.654 C 151.880 386.994,153.680 387.506,155.000 387.793 C 156.320 388.079,158.188 388.602,159.150 388.956 C 160.113 389.310,161.373 389.601,161.950 389.602 C 162.528 389.604,163.540 389.887,164.200 390.233 C 164.860 390.578,166.386 391.044,167.592 391.268 C 168.797 391.491,170.258 391.920,170.839 392.220 C 171.419 392.520,172.982 392.941,174.313 393.155 C 175.644 393.369,177.243 393.804,177.866 394.120 C 178.490 394.437,179.898 394.827,180.995 394.987 C 182.092 395.147,183.468 395.525,184.053 395.827 C 184.638 396.130,185.900 396.498,186.858 396.645 C 187.816 396.793,189.410 397.226,190.400 397.608 C 191.390 397.990,193.158 398.434,194.328 398.593 C 195.559 398.761,196.547 399.119,196.671 399.441 C 196.959 400.191,199.600 400.198,199.600 399.449 C 199.600 398.503,198.694 398.118,195.880 397.868 C 194.031 397.704,192.829 397.366,192.126 396.813 C 191.400 396.242,190.497 396.000,189.093 396.000 C 187.850 396.000,186.623 395.717,185.847 395.251 C 185.161 394.838,183.524 394.397,182.209 394.270 C 180.642 394.119,179.649 393.808,179.329 393.370 C 179.004 392.926,177.973 392.611,176.261 392.434 C 174.843 392.287,173.376 391.912,173.000 391.600 C 172.624 391.288,171.160 390.913,169.745 390.767 C 168.181 390.605,166.874 390.229,166.406 389.806 C 165.911 389.358,164.702 389.036,163.003 388.899 C 161.056 388.743,160.271 388.506,159.995 387.991 C 159.716 387.470,158.970 387.253,157.034 387.130 C 155.398 387.026,154.179 386.725,153.723 386.313 C 153.306 385.937,151.899 385.544,150.400 385.386 C 148.853 385.222,147.607 384.868,147.324 384.512 C 147.036 384.149,145.741 383.791,144.044 383.605 C 142.459 383.431,140.979 383.036,140.640 382.697 C 140.308 382.365,138.872 381.972,137.422 381.817 C 135.695 381.632,134.686 381.325,134.456 380.915 C 134.218 380.489,133.223 380.211,131.316 380.036 C 129.602 379.879,128.280 379.537,127.894 379.151 C 127.515 378.772,126.200 378.422,124.584 378.271 C 122.787 378.104,121.746 377.805,121.425 377.366 C 121.108 376.933,120.033 376.617,118.244 376.432 C 116.648 376.267,115.402 375.927,115.202 375.603 C 114.999 375.274,113.697 374.929,111.956 374.743 C 110.084 374.543,108.934 374.225,108.723 373.848 C 108.515 373.476,107.413 373.162,105.698 372.985 C 104.164 372.826,102.689 372.432,102.278 372.072 C 101.875 371.717,100.411 371.318,98.959 371.168 C 97.275 370.994,96.192 370.671,95.880 370.251 C 95.568 369.829,94.493 369.511,92.800 369.341 C 91.222 369.182,89.825 368.788,89.246 368.339 C 88.721 367.933,87.731 367.597,87.046 367.594 C 84.487 367.581,84.400 367.252,84.029 356.200 C 83.803 349.478,83.578 347.022,83.075 345.800 C 82.579 344.592,82.333 342.022,82.074 335.319 C 81.823 328.827,81.583 326.262,81.185 325.782 C 80.780 325.294,80.566 322.784,80.356 316.062 C 80.153 309.579,79.906 306.602,79.489 305.600 C 79.079 304.617,78.829 301.779,78.648 296.075 C 78.454 289.980,78.231 287.582,77.753 286.475 C 77.267 285.351,77.048 282.861,76.833 276.000 C 76.616 269.087,76.407 266.722,75.931 265.800 C 75.457 264.882,75.252 262.602,75.057 256.083 C 74.858 249.419,74.663 247.296,74.160 246.323 C 73.655 245.345,73.458 243.153,73.241 236.040 C 73.041 229.543,72.808 226.719,72.411 226.000 C 72.021 225.294,71.767 222.449,71.547 216.329 C 71.307 209.680,71.080 207.301,70.573 206.129 C 70.056 204.934,69.855 202.665,69.653 195.758 C 69.453 188.962,69.261 186.755,68.820 186.224 C 68.379 185.692,68.186 183.483,67.987 176.666 C 67.784 169.706,67.585 167.465,67.060 166.242 C 66.539 165.026,66.339 162.830,66.150 156.242 C 65.967 149.865,65.759 147.506,65.300 146.600 C 64.843 145.698,64.615 143.167,64.382 136.400 C 64.162 130.028,63.902 126.991,63.489 126.000 C 63.079 125.017,62.829 122.179,62.648 116.475 C 62.454 110.380,62.231 107.982,61.753 106.875 C 61.267 105.751,61.048 103.261,60.833 96.400 C 60.604 89.119,60.421 87.156,59.875 86.120 C 59.449 85.311,59.200 83.912,59.200 82.320 L 59.200 79.800 200.000 79.800 L 340.800 79.800 340.800 82.320 C 340.800 83.912,340.551 85.311,340.125 86.120 C 339.579 87.156,339.396 89.119,339.167 96.400 C 338.952 103.261,338.733 105.751,338.247 106.875 C 337.769 107.982,337.546 110.380,337.352 116.475 C 337.171 122.179,336.921 125.017,336.511 126.000 C 336.098 126.991,335.838 130.028,335.618 136.400 C 335.385 143.167,335.157 145.698,334.700 146.600 C 334.241 147.506,334.033 149.865,333.850 156.242 C 333.661 162.830,333.461 165.026,332.940 166.242 C 332.415 167.465,332.216 169.706,332.013 176.666 C 331.814 183.483,331.621 185.692,331.180 186.224 C 330.739 186.755,330.547 188.962,330.347 195.758 C 330.141 202.810,329.949 204.922,329.401 206.190 C 328.860 207.443,328.654 209.602,328.431 216.390 C 328.229 222.523,327.988 225.288,327.593 226.000 C 327.195 226.718,326.958 229.552,326.749 236.063 C 326.520 243.212,326.322 245.391,325.810 246.380 C 325.301 247.366,325.112 249.405,324.929 255.917 C 324.758 261.990,324.534 264.574,324.092 265.600 C 323.647 266.630,323.413 269.382,323.204 276.023 C 322.975 283.282,322.794 285.237,322.278 286.025 C 321.764 286.809,321.583 288.717,321.366 295.602 C 321.174 301.707,320.927 304.606,320.512 305.600 C 320.098 306.592,319.838 309.621,319.618 316.000 C 319.385 322.767,319.157 325.298,318.700 326.200 C 318.241 327.106,318.033 329.465,317.850 335.842 C 317.666 342.265,317.454 344.653,316.964 345.825 C 316.482 346.979,316.236 349.584,315.989 356.183 C 315.566 367.449,315.528 367.582,312.754 367.594 C 311.922 367.597,310.876 367.939,310.291 368.400 C 309.731 368.840,308.762 369.204,308.137 369.210 C 306.423 369.224,303.920 369.883,303.598 370.404 C 303.441 370.658,302.162 370.964,300.756 371.083 C 299.154 371.220,297.901 371.562,297.400 372.000 C 296.901 372.436,295.649 372.780,294.070 372.914 C 292.496 373.048,291.255 373.388,290.783 373.815 C 290.322 374.232,288.992 374.608,287.384 374.774 C 285.825 374.935,284.601 375.274,284.400 375.600 C 284.199 375.926,282.975 376.265,281.416 376.426 C 279.780 376.595,278.479 376.966,278.000 377.400 C 277.530 377.826,276.237 378.203,274.708 378.361 C 273.323 378.505,271.747 378.932,271.206 379.311 C 270.618 379.723,269.475 380.000,268.365 380.000 C 267.136 380.000,266.176 380.261,265.527 380.772 C 264.926 381.244,263.547 381.655,261.973 381.830 C 260.452 381.999,259.010 382.419,258.446 382.858 C 257.788 383.370,256.827 383.600,255.346 383.600 C 253.790 383.600,252.996 383.804,252.458 384.342 C 251.978 384.822,250.815 385.185,249.158 385.372 C 247.722 385.534,246.284 385.946,245.878 386.312 C 245.461 386.688,244.063 387.076,242.566 387.231 C 241.140 387.379,239.665 387.769,239.287 388.098 C 238.909 388.428,237.440 388.796,236.017 388.918 C 234.312 389.064,233.275 389.357,232.966 389.779 C 232.671 390.182,231.521 390.537,229.861 390.737 C 228.411 390.911,226.904 391.336,226.512 391.681 C 226.089 392.054,224.784 392.378,223.298 392.480 C 221.552 392.600,220.646 392.857,220.298 393.332 C 219.954 393.803,218.959 394.091,217.068 394.267 C 215.420 394.421,214.088 394.770,213.711 395.146 C 213.352 395.505,212.000 395.883,210.531 396.035 C 209.125 396.180,207.665 396.578,207.287 396.919 C 206.909 397.261,205.430 397.667,204.000 397.822 C 201.291 398.116,200.400 398.519,200.400 399.449 C 200.400 400.185,202.646 400.178,202.929 399.441 C 203.053 399.119,204.041 398.761,205.272 398.593 C 206.442 398.434,208.210 397.990,209.200 397.608 C 210.190 397.226,211.784 396.793,212.742 396.645 C 213.700 396.498,214.962 396.130,215.547 395.827 C 216.132 395.525,217.508 395.147,218.605 394.987 C 219.702 394.827,221.058 394.464,221.617 394.181 C 222.176 393.897,223.789 393.456,225.200 393.200 C 226.611 392.944,228.224 392.501,228.783 392.215 C 229.342 391.929,230.610 391.566,231.600 391.409 C 232.590 391.253,233.914 390.876,234.541 390.572 C 235.169 390.269,236.784 389.821,238.131 389.576 C 239.477 389.332,240.944 388.934,241.390 388.691 C 241.835 388.448,243.280 388.026,244.600 387.753 C 245.920 387.481,247.810 386.986,248.800 386.655 C 250.540 386.073,251.462 385.822,256.600 384.532 C 257.920 384.201,259.630 383.671,260.400 383.355 C 261.170 383.039,262.854 382.611,264.142 382.404 C 265.430 382.198,266.710 381.840,266.987 381.611 C 267.264 381.381,268.550 380.999,269.845 380.762 C 271.140 380.526,272.740 380.087,273.400 379.788 C 274.060 379.489,275.660 379.055,276.955 378.825 C 278.250 378.595,279.510 378.241,279.755 378.039 C 280.000 377.836,281.342 377.463,282.738 377.211 C 284.133 376.958,285.843 376.506,286.538 376.206 C 287.232 375.906,288.880 375.392,290.200 375.063 C 295.140 373.832,296.245 373.532,298.000 372.942 C 298.990 372.609,300.700 372.164,301.800 371.952 C 302.900 371.740,304.643 371.214,305.674 370.784 C 306.705 370.353,307.965 369.996,308.474 369.991 C 308.983 369.987,310.930 369.467,312.800 368.835 L 316.200 367.688 316.480 364.144 C 317.016 357.341,317.588 350.973,317.984 347.400 C 318.203 345.420,318.569 341.190,318.798 338.000 C 319.026 334.810,319.390 330.940,319.607 329.400 C 319.823 327.860,320.178 323.450,320.395 319.600 C 320.612 315.750,320.964 311.970,321.178 311.200 C 321.392 310.430,321.759 306.380,321.995 302.200 C 322.230 298.020,322.678 292.800,322.989 290.600 C 323.301 288.400,323.673 284.260,323.815 281.400 C 323.958 278.540,324.333 274.411,324.649 272.225 C 324.965 270.039,325.407 264.909,325.633 260.825 C 325.858 256.741,326.211 252.756,326.418 251.970 C 326.624 251.183,327.066 246.413,327.398 241.370 C 327.731 236.326,328.170 231.480,328.374 230.600 C 328.578 229.720,328.943 225.592,329.184 221.426 C 329.425 217.260,329.873 212.220,330.180 210.226 C 330.487 208.232,330.857 203.990,331.003 200.800 C 331.150 197.610,331.514 193.560,331.812 191.800 C 332.111 190.040,332.550 185.073,332.788 180.763 C 333.025 176.453,333.395 172.316,333.608 171.571 C 333.822 170.825,334.180 166.882,334.403 162.808 C 334.626 158.733,334.977 154.320,335.184 153.000 C 335.905 148.384,336.035 147.003,336.407 140.027 C 336.612 136.162,336.954 132.411,337.165 131.691 C 337.376 130.971,337.749 126.831,337.993 122.491 C 338.237 118.151,338.689 113.070,338.997 111.200 C 339.305 109.330,339.673 105.280,339.816 102.200 C 339.958 99.120,340.328 94.890,340.639 92.800 C 341.555 86.637,341.841 78.867,341.161 78.608 C 339.967 78.154,59.498 78.187,58.876 78.641 M111.400 136.750 C 109.794 137.092,109.474 141.652,110.753 145.950 C 111.380 148.057,111.580 150.199,111.727 156.400 C 111.865 162.183,112.071 164.565,112.525 165.612 C 112.970 166.637,113.214 169.262,113.418 175.212 C 113.618 181.029,113.872 183.805,114.295 184.800 C 114.724 185.808,114.974 188.666,115.188 195.000 C 115.406 201.424,115.654 204.232,116.109 205.400 C 116.564 206.569,116.797 209.204,116.973 215.181 C 117.163 221.658,117.345 223.562,117.845 224.325 C 118.348 225.092,118.531 227.088,118.747 234.155 C 119.003 242.534,119.068 243.092,119.936 244.310 L 120.854 245.600 150.327 245.600 C 166.537 245.600,193.975 245.720,211.300 245.866 C 245.376 246.153,243.594 246.016,242.134 248.244 C 241.588 249.078,241.425 250.807,241.224 257.930 C 241.029 264.829,240.846 266.846,240.329 267.804 C 239.795 268.793,239.654 270.675,239.539 278.333 C 239.414 286.710,239.329 287.697,238.700 288.048 C 238.289 288.278,238.000 288.910,238.000 289.577 C 238.000 290.941,237.456 291.200,234.587 291.200 C 232.981 291.200,232.344 291.372,232.059 291.881 C 231.780 292.379,230.898 292.633,228.772 292.828 C 226.741 293.014,225.718 293.297,225.375 293.767 C 225.029 294.239,224.039 294.510,222.052 294.677 C 220.018 294.847,219.031 295.124,218.548 295.657 C 218.029 296.231,217.304 296.400,215.361 296.400 C 213.367 296.400,212.737 296.554,212.323 297.141 C 211.922 297.709,211.106 297.931,208.830 298.092 C 206.552 298.254,205.732 298.478,205.313 299.052 C 204.586 300.045,194.618 300.200,194.017 299.227 C 193.797 298.871,192.573 298.537,190.784 298.346 C 189.141 298.171,187.613 297.773,187.223 297.420 C 186.847 297.080,185.414 296.685,184.038 296.541 C 182.662 296.397,181.276 296.019,180.958 295.701 C 180.640 295.383,179.079 294.960,177.490 294.762 C 175.787 294.550,174.423 294.162,174.169 293.819 C 173.907 293.465,172.654 293.128,170.969 292.959 C 169.237 292.785,167.843 292.404,167.246 291.941 C 166.675 291.498,165.631 291.198,164.646 291.195 C 160.595 291.181,160.493 290.934,160.285 280.600 C 160.177 275.264,159.951 272.200,159.605 271.400 C 159.320 270.740,158.966 268.534,158.818 266.499 C 158.433 261.187,160.135 261.628,139.970 261.613 L 122.939 261.600 122.070 262.526 C 121.090 263.569,120.968 264.408,121.691 265.131 C 122.034 265.474,122.253 268.248,122.415 274.311 C 122.571 280.179,122.818 283.390,123.175 284.200 C 123.519 284.980,123.820 288.434,124.035 294.071 C 124.281 300.529,124.529 303.133,125.007 304.271 C 125.458 305.345,125.720 307.671,125.886 312.088 L 126.123 318.376 127.583 319.388 C 128.673 320.144,129.554 320.400,131.060 320.400 C 132.451 320.400,133.343 320.630,133.934 321.142 C 134.463 321.602,135.734 321.984,137.265 322.144 C 138.642 322.288,140.053 322.686,140.446 323.042 C 140.835 323.394,142.228 323.808,143.542 323.963 C 144.856 324.118,146.238 324.500,146.614 324.811 C 146.989 325.123,148.541 325.492,150.062 325.631 C 151.980 325.807,152.979 326.092,153.323 326.562 C 153.649 327.009,154.631 327.318,156.209 327.472 C 157.524 327.601,158.925 327.988,159.322 328.334 C 159.719 328.681,161.206 329.083,162.634 329.231 C 164.129 329.386,165.529 329.774,165.943 330.149 C 166.350 330.516,167.744 330.911,169.162 331.059 C 170.585 331.208,171.933 331.590,172.288 331.945 C 172.648 332.305,173.999 332.683,175.469 332.835 C 176.875 332.980,178.335 333.370,178.713 333.702 C 179.091 334.033,180.474 334.434,181.787 334.592 C 183.148 334.756,184.591 335.207,185.141 335.640 C 185.798 336.156,186.748 336.400,188.107 336.400 C 189.349 336.400,190.578 336.683,191.353 337.149 C 192.039 337.560,193.570 338.005,194.755 338.136 C 195.940 338.268,197.223 338.659,197.605 339.005 C 198.778 340.066,200.984 340.216,201.903 339.297 C 202.470 338.730,203.410 338.452,205.202 338.322 C 207.057 338.188,207.851 337.944,208.262 337.383 C 208.691 336.797,209.450 336.589,211.618 336.467 C 213.784 336.345,214.507 336.147,214.800 335.600 C 215.093 335.053,215.816 334.855,217.982 334.733 C 220.150 334.611,220.909 334.403,221.338 333.817 C 221.751 333.253,222.546 333.012,224.446 332.874 C 226.341 332.738,227.135 332.498,227.523 331.945 C 227.940 331.350,228.562 331.200,230.607 331.200 C 232.592 331.200,233.330 331.031,233.884 330.449 C 234.374 329.936,235.453 329.610,237.298 329.418 C 239.098 329.230,240.112 328.930,240.344 328.515 C 240.583 328.087,241.585 327.810,243.540 327.631 C 245.423 327.459,246.559 327.154,246.894 326.731 C 247.220 326.319,248.286 326.018,249.887 325.885 C 251.569 325.745,252.720 325.406,253.441 324.839 C 254.221 324.226,255.080 324.000,256.638 324.000 C 258.205 324.000,258.958 323.801,259.484 323.246 C 260.002 322.701,260.922 322.448,262.813 322.333 C 264.842 322.209,265.625 321.975,266.313 321.287 C 267.017 320.583,267.661 320.400,269.431 320.400 C 271.403 320.400,271.809 320.253,272.931 319.131 L 274.200 317.863 274.400 310.191 C 274.557 304.180,274.730 302.363,275.200 301.798 C 275.679 301.223,275.847 299.210,276.032 291.828 C 276.226 284.080,276.374 282.412,276.941 281.546 C 277.505 280.686,277.661 278.996,277.873 271.456 C 278.013 266.475,278.259 262.400,278.421 262.400 C 279.106 262.400,279.321 260.524,279.588 252.200 C 279.808 245.331,280.010 243.137,280.507 242.200 C 281.012 241.248,281.193 239.104,281.384 231.818 C 281.590 223.913,281.720 222.531,282.312 221.878 C 283.386 220.693,283.570 210.027,282.535 208.992 C 281.842 208.299,279.191 208.281,217.760 208.546 L 153.708 208.823 153.459 207.311 C 153.321 206.480,153.199 202.920,153.187 199.400 C 153.171 194.652,153.006 192.587,152.551 191.400 C 151.957 189.852,151.024 175.422,151.470 174.691 C 151.574 174.521,181.753 174.505,218.535 174.656 C 281.688 174.916,285.451 174.892,286.106 174.237 C 286.685 173.658,286.800 172.770,286.802 168.871 C 286.804 165.222,286.953 163.938,287.483 163.000 C 288.044 162.008,288.200 160.233,288.384 152.768 C 288.578 144.906,288.697 143.645,289.304 143.039 C 290.135 142.207,290.295 137.655,289.520 136.880 C 289.003 136.363,113.820 136.235,111.400 136.750 M287.750 138.500 C 288.403 139.533,288.039 147.486,286.978 155.400 C 286.533 158.715,285.711 168.724,285.608 172.069 C 285.571 173.286,282.563 173.329,216.744 173.049 C 156.509 172.793,150.833 172.824,150.244 173.413 C 149.518 174.139,149.419 175.920,149.987 178.000 C 150.198 178.770,150.557 182.730,150.787 186.800 C 151.016 190.870,151.392 195.280,151.623 196.600 C 151.854 197.920,152.196 201.319,152.384 204.153 C 152.620 207.725,152.890 209.411,153.262 209.647 C 153.558 209.834,182.645 209.991,217.900 209.994 L 282.000 210.000 281.990 212.300 C 281.985 213.565,281.808 215.320,281.597 216.200 C 281.386 217.080,281.022 220.950,280.790 224.800 C 280.557 228.650,280.107 233.600,279.789 235.800 C 279.472 238.000,279.025 243.040,278.795 247.000 C 278.565 250.960,278.211 255.010,278.008 256.000 C 277.805 256.990,277.444 261.040,277.206 265.000 C 276.968 268.960,276.515 273.820,276.199 275.800 C 275.884 277.780,275.514 281.920,275.378 285.000 C 275.241 288.080,274.873 292.400,274.559 294.600 C 274.245 296.800,273.813 301.660,273.599 305.400 C 272.900 317.619,272.128 319.529,267.851 319.618 C 267.383 319.627,266.280 319.911,265.400 320.247 C 264.520 320.584,262.630 321.120,261.200 321.439 C 259.770 321.757,258.060 322.263,257.400 322.563 C 256.740 322.863,255.302 323.236,254.205 323.393 C 253.108 323.549,251.755 323.913,251.197 324.201 C 250.640 324.490,249.197 324.909,247.992 325.132 C 246.786 325.356,245.260 325.822,244.600 326.167 C 243.940 326.513,242.928 326.796,242.351 326.798 C 241.774 326.799,239.924 327.250,238.239 327.800 C 236.554 328.350,234.776 328.806,234.288 328.814 C 233.799 328.821,232.680 329.175,231.800 329.600 C 230.920 330.025,229.712 330.379,229.115 330.386 C 228.518 330.394,227.078 330.749,225.915 331.177 C 224.752 331.604,223.080 332.078,222.200 332.230 C 221.320 332.382,220.142 332.738,219.583 333.021 C 219.024 333.303,217.432 333.740,216.045 333.992 C 214.659 334.243,212.957 334.685,212.262 334.974 C 210.400 335.748,201.139 338.114,200.000 338.106 C 199.220 338.101,194.701 337.011,192.400 336.274 C 190.526 335.673,188.910 335.235,184.200 334.048 C 182.660 333.660,181.040 333.148,180.600 332.911 C 180.160 332.673,178.900 332.349,177.800 332.190 C 176.700 332.032,175.080 331.586,174.200 331.200 C 173.320 330.814,171.700 330.369,170.600 330.212 C 169.500 330.054,168.407 329.766,168.170 329.572 C 167.934 329.378,166.437 328.944,164.844 328.609 C 163.251 328.274,161.604 327.816,161.184 327.592 C 160.765 327.367,159.472 327.005,158.311 326.786 C 157.150 326.568,155.660 326.137,155.000 325.829 C 154.340 325.521,152.900 325.141,151.800 324.983 C 150.700 324.826,149.446 324.514,149.013 324.288 C 148.211 323.871,144.968 322.946,139.600 321.603 C 137.950 321.190,135.880 320.579,135.000 320.244 C 134.120 319.909,132.950 319.623,132.400 319.609 C 131.165 319.576,128.374 318.338,127.700 317.523 C 127.383 317.140,126.981 313.802,126.601 308.419 C 126.272 303.744,125.825 298.807,125.608 297.448 C 125.391 296.089,125.027 291.833,124.801 287.989 C 124.574 284.145,124.128 279.290,123.809 277.200 C 123.490 275.110,123.178 271.150,123.115 268.400 L 123.000 263.400 140.108 263.296 L 157.217 263.191 157.550 264.096 C 157.734 264.593,157.995 267.340,158.131 270.200 C 158.266 273.060,158.560 276.390,158.784 277.600 C 159.008 278.810,159.348 282.251,159.539 285.247 C 159.939 291.502,159.934 291.489,161.914 291.810 C 162.731 291.943,164.177 292.329,165.126 292.669 C 166.075 293.008,167.875 293.525,169.126 293.816 C 172.574 294.620,175.998 295.541,178.000 296.201 C 178.990 296.528,180.790 296.979,182.000 297.203 C 183.210 297.427,184.740 297.860,185.400 298.164 C 186.060 298.469,187.590 298.844,188.800 298.997 C 190.010 299.151,191.380 299.516,191.843 299.810 C 192.307 300.104,193.748 300.537,195.046 300.772 C 196.343 301.007,198.011 301.374,198.753 301.587 C 199.584 301.825,200.367 301.832,200.792 301.604 C 201.171 301.402,202.788 300.963,204.385 300.630 C 205.982 300.297,207.498 299.851,207.754 299.638 C 208.010 299.425,209.205 299.125,210.410 298.971 C 211.614 298.817,213.058 298.460,213.617 298.178 C 214.176 297.896,215.789 297.456,217.200 297.200 C 218.611 296.944,220.226 296.497,220.788 296.206 C 221.351 295.915,222.708 295.546,223.805 295.385 C 224.902 295.225,226.662 294.757,227.715 294.347 C 228.768 293.936,230.066 293.600,230.600 293.600 C 231.133 293.600,232.522 293.251,233.685 292.823 C 234.848 292.396,236.485 291.924,237.323 291.775 C 239.711 291.348,239.926 290.691,240.390 282.388 C 240.617 278.325,240.976 274.145,241.189 273.100 C 241.402 272.055,241.773 268.005,242.015 264.100 C 242.257 260.195,242.711 255.290,243.025 253.200 C 243.745 248.401,243.757 245.828,243.061 245.250 C 242.669 244.925,225.912 244.775,181.961 244.701 L 121.400 244.600 121.124 243.200 C 120.341 239.223,119.970 235.978,119.592 229.800 C 119.364 226.060,119.000 221.830,118.785 220.400 C 118.569 218.970,118.132 214.110,117.813 209.600 C 117.494 205.090,116.964 199.330,116.635 196.800 C 116.305 194.270,115.928 190.130,115.797 187.600 C 115.665 185.070,115.311 181.200,115.011 179.000 C 114.710 176.800,114.352 172.930,114.215 170.400 C 114.078 167.870,113.623 162.740,113.204 159.000 C 112.044 148.646,111.486 139.154,112.006 138.634 C 112.454 138.186,152.810 137.900,243.891 137.697 L 287.182 137.600 287.750 138.500 " stroke="none" fill="#ec745c" fill-rule="evenodd"></path><path id="path4" d="M84.308 26.300 L 84.200 52.600 85.122 53.500 C 86.017 54.373,86.284 54.400,94.160 54.400 C 104.516 54.400,103.552 55.385,103.692 44.666 L 103.800 36.376 111.064 36.288 L 118.328 36.200 118.560 37.600 C 118.687 38.370,118.793 42.279,118.796 46.286 C 118.800 53.077,118.852 53.600,119.574 53.986 C 121.175 54.843,135.887 54.513,136.800 53.600 C 137.883 52.517,138.082 0.000,137.003 0.000 C 136.480 0.000,136.393 3.313,136.303 26.500 L 136.200 53.000 128.000 53.000 L 119.800 53.000 119.600 44.600 C 119.490 39.980,119.254 35.975,119.076 35.700 C 118.664 35.063,104.348 34.986,103.174 35.614 C 102.447 36.003,102.400 36.532,102.400 44.406 C 102.400 54.372,103.562 53.273,93.200 53.114 L 85.800 53.000 85.697 26.500 C 85.608 3.484,85.517 0.000,85.006 0.000 C 84.494 0.000,84.403 3.462,84.308 26.300 M101.600 8.338 C 101.600 15.908,101.667 16.737,102.331 17.338 C 103.264 18.182,118.295 18.345,119.120 17.520 C 119.728 16.912,119.813 0.000,119.208 -0.000 C 118.968 -0.000,118.774 3.288,118.708 8.500 L 118.600 17.000 111.000 17.000 L 103.400 17.000 103.292 8.500 C 103.188 0.331,103.153 0.000,102.392 0.000 C 101.628 0.000,101.600 0.295,101.600 8.338 M144.400 8.400 C 144.400 19.262,143.663 18.400,152.950 18.400 L 159.900 18.400 160.150 19.650 C 160.288 20.337,160.400 28.065,160.400 36.821 C 160.400 54.084,160.348 53.671,162.584 54.232 C 164.513 54.716,178.245 54.228,178.940 53.651 C 179.535 53.156,179.600 51.393,179.600 35.776 L 179.600 18.449 186.940 18.325 C 192.425 18.232,194.446 18.061,194.940 17.651 C 196.060 16.719,195.928 0.000,194.800 0.000 C 194.025 0.000,194.000 0.267,194.000 8.553 C 194.000 18.700,195.037 17.587,185.580 17.595 C 180.971 17.598,178.814 17.746,178.480 18.080 C 178.122 18.438,178.000 22.896,178.000 35.672 L 178.000 52.785 177.100 53.006 C 176.605 53.128,173.050 53.177,169.200 53.114 L 162.200 53.000 162.000 35.685 C 161.829 20.879,161.713 18.315,161.200 17.991 C 160.870 17.783,157.600 17.609,153.933 17.606 C 145.045 17.598,146.000 18.687,146.000 8.557 C 146.000 0.267,145.975 0.000,145.200 0.000 C 144.425 0.000,144.400 0.267,144.400 8.400 M202.000 26.400 C 202.000 58.310,200.684 54.400,211.426 54.400 C 221.909 54.400,220.800 55.792,220.800 42.636 C 220.800 36.621,220.916 31.119,221.058 30.408 L 221.317 29.116 221.880 30.258 C 222.788 32.098,223.784 33.799,224.318 34.421 C 225.197 35.447,226.769 37.777,227.148 38.616 C 227.351 39.065,227.805 39.673,228.158 39.965 C 228.511 40.258,228.800 40.737,228.800 41.028 C 228.800 41.320,229.250 42.044,229.800 42.638 C 230.350 43.231,230.800 43.933,230.800 44.196 C 230.800 46.560,235.137 46.362,235.187 43.996 C 235.194 43.664,235.560 43.168,236.000 42.893 C 236.440 42.618,236.800 42.170,236.801 41.897 C 236.801 41.623,237.516 40.410,238.389 39.200 C 239.262 37.990,240.242 36.415,240.568 35.700 C 240.893 34.985,241.345 34.400,241.572 34.400 C 241.799 34.400,242.094 33.963,242.228 33.429 C 242.362 32.896,242.816 32.148,243.236 31.767 C 243.656 31.387,244.000 30.755,244.000 30.362 C 244.000 29.969,244.180 29.536,244.400 29.400 C 244.663 29.237,244.800 33.242,244.800 41.114 C 244.800 52.195,244.854 53.125,245.531 53.738 C 246.749 54.840,262.080 54.720,263.200 53.600 C 264.283 52.517,264.482 0.000,263.403 0.000 C 262.880 0.000,262.793 3.313,262.703 26.500 L 262.600 53.000 254.245 53.000 L 245.890 53.000 245.969 40.969 C 246.039 30.530,245.967 28.871,245.430 28.425 C 244.565 27.707,243.734 28.138,242.998 29.683 C 241.858 32.079,241.080 33.398,240.727 33.537 C 240.535 33.612,240.018 34.332,239.578 35.137 C 239.138 35.942,238.468 37.068,238.089 37.640 C 237.710 38.213,237.059 39.203,236.643 39.840 C 236.226 40.478,235.584 41.450,235.216 42.000 C 234.847 42.550,234.429 43.315,234.286 43.700 C 233.857 44.852,232.047 44.595,231.476 43.300 C 230.732 41.614,228.833 38.800,228.438 38.800 C 228.245 38.800,227.978 38.367,227.845 37.839 C 227.713 37.310,226.890 35.974,226.018 34.870 C 225.145 33.766,224.311 32.384,224.164 31.799 C 224.017 31.214,223.663 30.645,223.376 30.536 C 223.090 30.426,222.673 29.810,222.449 29.168 C 222.027 27.957,221.086 27.631,220.524 28.500 C 220.346 28.775,220.110 34.400,220.000 41.000 L 219.800 53.000 211.600 53.000 L 203.400 53.000 203.297 26.500 C 203.207 3.313,203.120 0.000,202.597 0.000 C 202.074 0.000,202.000 3.256,202.000 26.400 M221.756 1.281 C 221.897 1.985,222.349 2.930,222.761 3.381 C 223.173 3.831,224.087 5.235,224.793 6.500 C 225.499 7.765,226.242 8.902,226.444 9.027 C 226.647 9.152,227.086 9.827,227.420 10.527 C 227.755 11.227,228.471 12.520,229.011 13.400 C 229.552 14.280,230.255 15.554,230.574 16.232 C 231.631 18.478,233.690 19.293,234.543 17.803 C 234.795 17.365,235.405 16.496,235.900 15.872 C 236.395 15.249,236.800 14.403,236.800 13.993 C 236.800 13.583,236.976 13.139,237.190 13.006 C 237.730 12.673,240.400 8.608,240.400 8.121 C 240.400 7.902,240.750 7.407,241.177 7.021 C 241.605 6.634,242.069 5.796,242.209 5.159 C 242.349 4.521,242.597 4.000,242.761 4.000 C 243.113 4.000,245.200 0.890,245.200 0.364 C 245.200 -0.424,243.643 0.036,243.385 0.900 C 243.237 1.395,242.344 2.970,241.400 4.400 C 240.456 5.830,239.563 7.405,239.415 7.900 C 239.267 8.395,238.981 8.800,238.778 8.800 C 238.576 8.800,238.166 9.385,237.867 10.100 C 237.568 10.815,237.026 11.647,236.662 11.949 C 236.298 12.251,236.000 12.808,236.000 13.187 C 236.000 13.566,235.640 14.202,235.200 14.600 C 234.760 14.998,234.397 15.521,234.394 15.762 C 234.366 17.720,232.272 17.435,231.594 15.381 C 231.343 14.621,230.974 14.000,230.774 14.000 C 230.574 14.000,230.145 13.364,229.820 12.586 C 229.495 11.808,228.953 10.895,228.615 10.557 C 228.277 10.219,228.000 9.714,228.000 9.433 C 228.000 9.153,227.640 8.598,227.200 8.200 C 226.760 7.802,226.400 7.248,226.400 6.969 C 226.400 6.690,225.975 5.953,225.455 5.331 C 224.935 4.709,224.388 3.811,224.239 3.336 C 224.091 2.861,223.706 2.254,223.385 1.987 C 223.063 1.720,222.800 1.164,222.800 0.751 C 222.800 0.324,222.519 -0.000,222.150 -0.000 C 221.632 -0.000,221.552 0.260,221.756 1.281 M271.600 26.324 C 271.600 48.421,271.691 52.772,272.167 53.424 C 272.843 54.348,311.553 54.874,314.789 54.003 C 316.868 53.443,316.894 53.312,316.732 44.257 C 316.557 34.426,318.101 35.453,303.086 35.180 C 296.439 35.059,290.955 34.924,290.900 34.880 C 290.845 34.836,290.800 26.970,290.800 17.400 C 290.800 2.200,290.724 0.000,290.200 0.000 C 289.180 0.000,289.308 35.212,290.331 36.138 C 290.976 36.721,292.418 36.800,302.483 36.800 C 311.180 36.800,314.002 36.920,314.320 37.304 C 315.021 38.148,315.063 52.388,314.366 52.829 C 313.698 53.252,274.942 53.279,273.872 52.857 C 273.178 52.583,273.146 51.351,273.186 26.285 C 273.227 0.109,273.223 0.000,272.413 0.000 C 271.604 0.000,271.600 0.123,271.600 26.324 " stroke="none" fill="#939393" fill-rule="evenodd"></path></g></svg>